<?xml version="1.0" encoding="UTF-8"?>
<svg width="142px" height="48px" viewBox="0 0 142 48" version="1.1" xmlns="http://www.w3.org/2000/svg" xmlns:xlink="http://www.w3.org/1999/xlink">
    <!-- Generator: sketchtool 53.2 (72643) - https://sketchapp.com -->
    <title>099B8021-D520-4443-9346-7E16D521A66D</title>
    <desc>Created with sketchtool.</desc>
    <g id="Welcome" stroke="none" stroke-width="1" fill="none" fill-rule="evenodd">
        <g id="CP_page" transform="translate(-153.000000, -27.000000)">
            <g id="Home-page" transform="translate(-240.000000, 0.000000)">
                <g id="Header">
                    <g id="Group-2" transform="translate(393.000000, 27.000000)">
                        <path d="M69.046875,24.9042969 C69.046875,29.1465056 67.8955193,32.3896372 65.5927734,34.6337891 C63.2900275,36.8779409 59.9765841,38 55.6523438,38 L48.5332031,38 L48.5332031,12.3007812 L56.4082031,12.3007812 C60.4043169,12.3007812 63.5097546,13.4081921 65.7246094,15.6230469 C67.9394642,17.8379017 69.046875,20.9316208 69.046875,24.9042969 Z M65.8828125,25.0097656 C65.8828125,21.6581864 65.0420006,19.132821 63.3603516,17.4335938 C61.6787025,15.7343665 59.1797041,14.8847656 55.8632812,14.8847656 L51.5214844,14.8847656 L51.5214844,35.4160156 L55.1601562,35.4160156 C58.7226741,35.4160156 61.4003817,34.5400478 63.1933594,32.7880859 C64.9863371,31.0361241 65.8828125,28.4433765 65.8828125,25.0097656 Z M77.765625,27.3125 L77.765625,38 L74.7773438,38 L74.7773438,12.3007812 L81.8261719,12.3007812 C84.9785314,12.3007812 87.3076097,12.9042908 88.8134766,14.1113281 C90.3193435,15.3183654 91.0722656,17.1347535 91.0722656,19.5605469 C91.0722656,22.9590014 89.3496266,25.2558534 85.9042969,26.4511719 L92.8828125,38 L89.3496094,38 L83.1269531,27.3125 L77.765625,27.3125 Z M77.765625,24.7460938 L81.8613281,24.7460938 C83.9707137,24.7460938 85.5175732,24.3271526 86.5019531,23.4892578 C87.486333,22.651363 87.9785156,21.3945396 87.9785156,19.71875 C87.9785156,18.0195228 87.4775441,16.7949256 86.4755859,16.0449219 C85.4736278,15.2949181 83.8652454,14.9199219 81.6503906,14.9199219 L77.765625,14.9199219 L77.765625,24.7460938 Z M119.337891,25.1152344 C119.337891,29.2285362 118.297862,32.4628788 116.217773,34.8183594 C114.137685,37.1738399 111.246112,38.3515625 107.542969,38.3515625 C103.757794,38.3515625 100.836924,37.1943475 98.7802734,34.8798828 C96.7236225,32.5654181 95.6953125,29.2988492 95.6953125,25.0800781 C95.6953125,20.8964635 96.7265522,17.6533318 98.7890625,15.3505859 C100.851573,13.04784 103.781231,11.8964844 107.578125,11.8964844 C111.26955,11.8964844 114.152333,13.0683477 116.226562,15.4121094 C118.300792,17.7558711 119.337891,20.9902138 119.337891,25.1152344 Z M98.859375,25.1152344 C98.859375,28.5957205 99.6005785,31.2353426 101.083008,33.0341797 C102.565437,34.8330168 104.718736,35.7324219 107.542969,35.7324219 C110.390639,35.7324219 112.541008,34.8359465 113.994141,33.0429688 C115.447273,31.249991 116.173828,28.6074393 116.173828,25.1152344 C116.173828,21.6581858 115.450203,19.0361417 114.00293,17.2490234 C112.555657,15.4619051 110.414077,14.5683594 107.578125,14.5683594 C104.730455,14.5683594 102.565437,15.4677644 101.083008,17.2666016 C99.6005785,19.0654387 98.859375,21.6816235 98.859375,25.1152344 Z M141.363281,19.7890625 C141.363281,22.390638 140.475595,24.3915946 138.700195,25.7919922 C136.924796,27.1923898 134.384782,27.8925781 131.080078,27.8925781 L128.056641,27.8925781 L128.056641,38 L125.068359,38 L125.068359,12.3007812 L131.730469,12.3007812 C138.152376,12.3007812 141.363281,14.79685 141.363281,19.7890625 Z M128.056641,25.3261719 L130.746094,25.3261719 C133.394544,25.3261719 135.310541,24.8984418 136.494141,24.0429688 C137.67774,23.1874957 138.269531,21.8164157 138.269531,19.9296875 C138.269531,18.2304603 137.712896,16.9648479 136.599609,16.1328125 C135.486323,15.3007771 133.751965,14.8847656 131.396484,14.8847656 L128.056641,14.8847656 L128.056641,25.3261719 Z" id="DROP" fill="#FFFFFF" fill-rule="nonzero"></path>
                        <g id="Notes-/-Callout-S">
                            <path d="M5.85786438,5.84442891 C-1.95262146,13.6370008 -1.95262146,26.2712561 5.85786438,34.063828 L18.8665956,47.0427226 C19.4925576,47.6672489 20.5033261,47.6713558 21.1334044,47.0427226 L34.1421356,34.063828 C41.9526215,26.2712561 41.9526215,13.6370008 34.1421356,5.84442891 C26.3316498,-1.94814297 13.6683502,-1.94814297 5.85786438,5.84442891 Z" id="Callout-Background" fill="#E54B44" fill-rule="evenodd"></path>
                            <text id="D" font-family="OpenSans, Open Sans" font-size="13.2110092" font-weight="normal" fill="#FFFFFF">
                                <tspan x="15.0458716" y="27.2110092">D</tspan>
                            </text>
                        </g>
                    </g>
                </g>
            </g>
        </g>
    </g>
</svg>